<mxfile host="app.diagrams.net" modified="2023-08-01T13:02:43.669Z" agent="Mozilla/5.0 (X11; Linux x86_64) AppleWebKit/537.36 (KHTML, like Gecko) Chrome/115.0.0.0 Safari/537.36" etag="QlLVDpCvYB852Cd0ZeNP" version="21.6.6" type="device">
  <diagram name="Page-1" id="skiWZUBT6v7a5BH_s830">
    <mxGraphModel dx="989" dy="542" grid="1" gridSize="10" guides="1" tooltips="1" connect="1" arrows="1" fold="1" page="1" pageScale="1" pageWidth="827" pageHeight="1169" math="0" shadow="0">
      <root>
        <mxCell id="0" />
        <mxCell id="1" parent="0" />
        <mxCell id="ie2OLaik_cQSUcNvViey-35" value="" style="rounded=0;whiteSpace=wrap;html=1;dashed=1;strokeColor=#FFD966;strokeWidth=4;" vertex="1" parent="1">
          <mxGeometry x="460" y="250" width="460" height="360" as="geometry" />
        </mxCell>
        <mxCell id="Nc5Ob6U3UA9-lTMzCozv-1" value="&lt;div&gt;packit&lt;/div&gt;&lt;div&gt;(Kotlin/React/Nginx)&lt;br&gt;&lt;/div&gt;" style="rounded=1;whiteSpace=wrap;html=1;verticalAlign=top;align=center;" parent="1" vertex="1">
          <mxGeometry x="570" y="40" width="120" height="130" as="geometry" />
        </mxCell>
        <mxCell id="Nc5Ob6U3UA9-lTMzCozv-2" value="&lt;div&gt;packit-db&lt;/div&gt;&lt;div&gt;(psql)&lt;br&gt;&lt;/div&gt;" style="shape=cylinder3;whiteSpace=wrap;html=1;boundedLbl=1;backgroundOutline=1;size=15;" parent="1" vertex="1">
          <mxGeometry x="740" y="145" width="90" height="80" as="geometry" />
        </mxCell>
        <mxCell id="Nc5Ob6U3UA9-lTMzCozv-4" value="" style="endArrow=none;html=1;rounded=0;entryX=1;entryY=1;entryDx=0;entryDy=0;exitX=0.5;exitY=0;exitDx=0;exitDy=0;exitPerimeter=0;startArrow=classic;startFill=1;" parent="1" source="Nc5Ob6U3UA9-lTMzCozv-2" target="w3lYJxwa8sGnMlQlAm_v-17" edge="1">
          <mxGeometry width="50" height="50" relative="1" as="geometry">
            <mxPoint x="390" y="400" as="sourcePoint" />
            <mxPoint x="440" y="350" as="targetPoint" />
          </mxGeometry>
        </mxCell>
        <mxCell id="Nc5Ob6U3UA9-lTMzCozv-8" value="packet metadata" style="edgeLabel;html=1;align=center;verticalAlign=middle;resizable=0;points=[];" parent="Nc5Ob6U3UA9-lTMzCozv-4" vertex="1" connectable="0">
          <mxGeometry x="0.1523" y="-1" relative="1" as="geometry">
            <mxPoint as="offset" />
          </mxGeometry>
        </mxCell>
        <mxCell id="w3lYJxwa8sGnMlQlAm_v-6" value="" style="group" parent="1" connectable="0" vertex="1">
          <mxGeometry x="240" y="80" width="190" height="100" as="geometry" />
        </mxCell>
        <mxCell id="Nc5Ob6U3UA9-lTMzCozv-5" value="&lt;div&gt;outpack_server&lt;/div&gt;&lt;div&gt;(Rust)&lt;br&gt;&lt;/div&gt;" style="rounded=1;whiteSpace=wrap;html=1;verticalAlign=top;align=center;" parent="w3lYJxwa8sGnMlQlAm_v-6" vertex="1">
          <mxGeometry width="190" height="100" as="geometry" />
        </mxCell>
        <mxCell id="w3lYJxwa8sGnMlQlAm_v-3" value="http" style="rounded=0;whiteSpace=wrap;html=1;" parent="w3lYJxwa8sGnMlQlAm_v-6" vertex="1">
          <mxGeometry x="100" y="50" width="60" height="30" as="geometry" />
        </mxCell>
        <mxCell id="w3lYJxwa8sGnMlQlAm_v-4" value="cli" style="rounded=0;whiteSpace=wrap;html=1;" parent="w3lYJxwa8sGnMlQlAm_v-6" vertex="1">
          <mxGeometry x="30" y="50" width="60" height="30" as="geometry" />
        </mxCell>
        <mxCell id="w3lYJxwa8sGnMlQlAm_v-7" value="&lt;div&gt;orderly repository /&lt;br&gt;&lt;/div&gt;&lt;div&gt;packet file storage&lt;/div&gt;" style="sketch=0;aspect=fixed;pointerEvents=1;shadow=0;dashed=0;html=1;strokeColor=default;labelPosition=center;verticalLabelPosition=bottom;verticalAlign=top;align=center;fillColor=none;shape=mxgraph.mscae.enterprise.folder" parent="1" vertex="1">
          <mxGeometry x="20" y="200" width="244.17" height="210" as="geometry" />
        </mxCell>
        <mxCell id="Nc5Ob6U3UA9-lTMzCozv-6" value="" style="endArrow=none;html=1;rounded=0;entryX=0;entryY=0.5;entryDx=0;entryDy=0;exitX=1;exitY=0;exitDx=0;exitDy=0;startArrow=block;startFill=1;" parent="1" source="w3lYJxwa8sGnMlQlAm_v-3" target="w3lYJxwa8sGnMlQlAm_v-17" edge="1">
          <mxGeometry width="50" height="50" relative="1" as="geometry">
            <mxPoint x="390" y="370" as="sourcePoint" />
            <mxPoint x="440" y="320" as="targetPoint" />
          </mxGeometry>
        </mxCell>
        <mxCell id="Nc5Ob6U3UA9-lTMzCozv-7" value="&lt;div&gt;get packet&lt;/div&gt;&lt;div&gt;metadata/data&lt;br&gt;&lt;/div&gt;" style="edgeLabel;html=1;align=center;verticalAlign=middle;resizable=0;points=[];" parent="Nc5Ob6U3UA9-lTMzCozv-6" vertex="1" connectable="0">
          <mxGeometry x="-0.08" y="-3" relative="1" as="geometry">
            <mxPoint x="22" y="-15" as="offset" />
          </mxGeometry>
        </mxCell>
        <mxCell id="w3lYJxwa8sGnMlQlAm_v-9" value="cli user" style="shape=umlActor;verticalLabelPosition=bottom;verticalAlign=top;html=1;outlineConnect=0;" parent="1" vertex="1">
          <mxGeometry x="20" y="100" width="30" height="60" as="geometry" />
        </mxCell>
        <mxCell id="w3lYJxwa8sGnMlQlAm_v-14" value="" style="endArrow=classic;html=1;rounded=0;entryX=0;entryY=0.25;entryDx=0;entryDy=0;" parent="1" target="w3lYJxwa8sGnMlQlAm_v-4" edge="1">
          <mxGeometry width="50" height="50" relative="1" as="geometry">
            <mxPoint x="50" y="130" as="sourcePoint" />
            <mxPoint x="440" y="320" as="targetPoint" />
          </mxGeometry>
        </mxCell>
        <mxCell id="w3lYJxwa8sGnMlQlAm_v-15" value="&lt;div&gt;get /post&lt;/div&gt;&lt;div&gt;packet metadata/data&lt;br&gt;&lt;/div&gt;" style="edgeLabel;html=1;align=center;verticalAlign=middle;resizable=0;points=[];" parent="w3lYJxwa8sGnMlQlAm_v-14" connectable="0" vertex="1">
          <mxGeometry x="-0.3005" y="2" relative="1" as="geometry">
            <mxPoint as="offset" />
          </mxGeometry>
        </mxCell>
        <mxCell id="w3lYJxwa8sGnMlQlAm_v-16" value="web app user" style="shape=umlActor;verticalLabelPosition=bottom;verticalAlign=top;html=1;outlineConnect=0;" parent="1" vertex="1">
          <mxGeometry x="740" y="30" width="30" height="60" as="geometry" />
        </mxCell>
        <mxCell id="w3lYJxwa8sGnMlQlAm_v-17" value="web app" style="rounded=0;whiteSpace=wrap;html=1;" parent="1" vertex="1">
          <mxGeometry x="585" y="80" width="90" height="30" as="geometry" />
        </mxCell>
        <mxCell id="w3lYJxwa8sGnMlQlAm_v-18" value="&lt;div&gt;outpack_server&lt;/div&gt;&lt;div&gt;proxy&lt;br&gt;&lt;/div&gt;" style="rounded=0;whiteSpace=wrap;html=1;" parent="1" vertex="1">
          <mxGeometry x="585" y="120" width="90" height="30" as="geometry" />
        </mxCell>
        <mxCell id="w3lYJxwa8sGnMlQlAm_v-19" value="" style="endArrow=classic;html=1;rounded=0;exitX=0;exitY=0.5;exitDx=0;exitDy=0;" parent="1" source="w3lYJxwa8sGnMlQlAm_v-18" edge="1">
          <mxGeometry width="50" height="50" relative="1" as="geometry">
            <mxPoint x="390" y="370" as="sourcePoint" />
            <mxPoint x="400" y="145" as="targetPoint" />
          </mxGeometry>
        </mxCell>
        <mxCell id="w3lYJxwa8sGnMlQlAm_v-20" value="push/pull packet" style="edgeLabel;html=1;align=center;verticalAlign=middle;resizable=0;points=[];" parent="w3lYJxwa8sGnMlQlAm_v-19" connectable="0" vertex="1">
          <mxGeometry x="-0.082" y="-2" relative="1" as="geometry">
            <mxPoint as="offset" />
          </mxGeometry>
        </mxCell>
        <mxCell id="w3lYJxwa8sGnMlQlAm_v-21" value="" style="endArrow=none;html=1;rounded=0;exitX=1;exitY=0.5;exitDx=0;exitDy=0;" parent="1" source="w3lYJxwa8sGnMlQlAm_v-17" target="w3lYJxwa8sGnMlQlAm_v-16" edge="1">
          <mxGeometry width="50" height="50" relative="1" as="geometry">
            <mxPoint x="390" y="370" as="sourcePoint" />
            <mxPoint x="440" y="320" as="targetPoint" />
          </mxGeometry>
        </mxCell>
        <mxCell id="w3lYJxwa8sGnMlQlAm_v-42" style="edgeStyle=orthogonalEdgeStyle;rounded=0;orthogonalLoop=1;jettySize=auto;html=1;exitX=0;exitY=0.5;exitDx=0;exitDy=0;" parent="1" source="w3lYJxwa8sGnMlQlAm_v-26" target="w3lYJxwa8sGnMlQlAm_v-37" edge="1">
          <mxGeometry relative="1" as="geometry" />
        </mxCell>
        <mxCell id="w3lYJxwa8sGnMlQlAm_v-43" value="&lt;div&gt;implements &amp;amp; validates against&lt;/div&gt;" style="edgeLabel;html=1;align=center;verticalAlign=middle;resizable=0;points=[];" parent="w3lYJxwa8sGnMlQlAm_v-42" connectable="0" vertex="1">
          <mxGeometry x="0.04" relative="1" as="geometry">
            <mxPoint as="offset" />
          </mxGeometry>
        </mxCell>
        <mxCell id="w3lYJxwa8sGnMlQlAm_v-26" value="&lt;div&gt;orderly&lt;/div&gt;(R)" style="rounded=1;whiteSpace=wrap;html=1;" parent="1" vertex="1">
          <mxGeometry x="480" y="301" width="120" height="60" as="geometry" />
        </mxCell>
        <mxCell id="w3lYJxwa8sGnMlQlAm_v-27" value="" style="endArrow=none;html=1;rounded=0;entryX=0.6;entryY=1;entryDx=0;entryDy=0;exitX=0.5;exitY=0;exitDx=0;exitDy=0;endFill=0;startArrow=classic;startFill=1;entryPerimeter=0;" parent="1" source="w3lYJxwa8sGnMlQlAm_v-37" target="Nc5Ob6U3UA9-lTMzCozv-5" edge="1">
          <mxGeometry width="50" height="50" relative="1" as="geometry">
            <mxPoint x="390" y="220" as="sourcePoint" />
            <mxPoint x="440" y="170" as="targetPoint" />
          </mxGeometry>
        </mxCell>
        <mxCell id="w3lYJxwa8sGnMlQlAm_v-28" value="use schema" style="edgeLabel;html=1;align=center;verticalAlign=middle;resizable=0;points=[];" parent="w3lYJxwa8sGnMlQlAm_v-27" connectable="0" vertex="1">
          <mxGeometry x="-0.0555" y="-2" relative="1" as="geometry">
            <mxPoint x="1" as="offset" />
          </mxGeometry>
        </mxCell>
        <mxCell id="w3lYJxwa8sGnMlQlAm_v-29" value="" style="endArrow=classic;html=1;rounded=0;exitX=0.75;exitY=0;exitDx=0;exitDy=0;entryX=0;entryY=1;entryDx=0;entryDy=0;" parent="1" source="w3lYJxwa8sGnMlQlAm_v-26" target="w3lYJxwa8sGnMlQlAm_v-18" edge="1">
          <mxGeometry width="50" height="50" relative="1" as="geometry">
            <mxPoint x="390" y="220" as="sourcePoint" />
            <mxPoint x="380" y="190" as="targetPoint" />
          </mxGeometry>
        </mxCell>
        <mxCell id="w3lYJxwa8sGnMlQlAm_v-31" value="&lt;div&gt;push/pull packet&lt;/div&gt;" style="edgeLabel;html=1;align=center;verticalAlign=middle;resizable=0;points=[];" parent="w3lYJxwa8sGnMlQlAm_v-29" connectable="0" vertex="1">
          <mxGeometry x="0.2003" y="-1" relative="1" as="geometry">
            <mxPoint x="4" y="4" as="offset" />
          </mxGeometry>
        </mxCell>
        <mxCell id="w3lYJxwa8sGnMlQlAm_v-34" value="" style="group" parent="1" connectable="0" vertex="1">
          <mxGeometry x="274" y="441" width="140" height="80" as="geometry" />
        </mxCell>
        <mxCell id="w3lYJxwa8sGnMlQlAm_v-33" value="&lt;div align=&quot;center&quot;&gt;git&lt;/div&gt;" style="ellipse;shape=cloud;whiteSpace=wrap;html=1;align=center;verticalAlign=top;horizontal=1;spacingTop=7;" parent="w3lYJxwa8sGnMlQlAm_v-34" vertex="1">
          <mxGeometry width="140" height="80" as="geometry" />
        </mxCell>
        <mxCell id="w3lYJxwa8sGnMlQlAm_v-32" value="" style="dashed=0;outlineConnect=0;html=1;align=center;labelPosition=center;verticalLabelPosition=bottom;verticalAlign=top;shape=mxgraph.weblogos.github" parent="w3lYJxwa8sGnMlQlAm_v-34" vertex="1">
          <mxGeometry x="55" y="30" width="35" height="30" as="geometry" />
        </mxCell>
        <mxCell id="w3lYJxwa8sGnMlQlAm_v-37" value="&lt;div&gt;outpack&lt;/div&gt;&lt;div&gt;(json-schema)&lt;br&gt;&lt;/div&gt;" style="rounded=1;whiteSpace=wrap;html=1;" parent="1" vertex="1">
          <mxGeometry x="294" y="225" width="120" height="60" as="geometry" />
        </mxCell>
        <mxCell id="w3lYJxwa8sGnMlQlAm_v-48" value="orderly_config.yml" style="whiteSpace=wrap;html=1;shape=mxgraph.basic.document" parent="1" vertex="1">
          <mxGeometry x="54.879999999999995" y="235" width="110" height="45" as="geometry" />
        </mxCell>
        <mxCell id="w3lYJxwa8sGnMlQlAm_v-59" value="orderly user" style="shape=umlActor;verticalLabelPosition=bottom;verticalAlign=top;html=1;outlineConnect=0;" parent="1" vertex="1">
          <mxGeometry x="759.37" y="265" width="30" height="60" as="geometry" />
        </mxCell>
        <mxCell id="w3lYJxwa8sGnMlQlAm_v-62" value="" style="endArrow=none;html=1;rounded=0;exitX=1;exitY=0.5;exitDx=0;exitDy=0;endFill=0;startArrow=classic;startFill=1;entryX=0;entryY=0.3333333333333333;entryDx=0;entryDy=0;entryPerimeter=0;" parent="1" source="w3lYJxwa8sGnMlQlAm_v-26" edge="1" target="w3lYJxwa8sGnMlQlAm_v-59">
          <mxGeometry width="50" height="50" relative="1" as="geometry">
            <mxPoint x="390" y="290" as="sourcePoint" />
            <mxPoint x="600" y="400" as="targetPoint" />
          </mxGeometry>
        </mxCell>
        <mxCell id="w3lYJxwa8sGnMlQlAm_v-67" value="&lt;div&gt;run report&lt;/div&gt;&lt;div&gt;pull/push packet&lt;br&gt;&lt;/div&gt;" style="edgeLabel;html=1;align=center;verticalAlign=middle;resizable=0;points=[];" parent="w3lYJxwa8sGnMlQlAm_v-62" connectable="0" vertex="1">
          <mxGeometry x="-0.2393" y="-1" relative="1" as="geometry">
            <mxPoint x="23" y="-6" as="offset" />
          </mxGeometry>
        </mxCell>
        <mxCell id="w3lYJxwa8sGnMlQlAm_v-57" value="" style="sketch=0;aspect=fixed;pointerEvents=1;shadow=0;dashed=0;html=1;strokeColor=default;labelPosition=center;verticalLabelPosition=bottom;verticalAlign=middle;align=center;fillColor=none;shape=mxgraph.mscae.enterprise.folder" parent="1" vertex="1">
          <mxGeometry x="72.07000000000001" y="295" width="58.13333333333334" height="50" as="geometry" />
        </mxCell>
        <mxCell id="w3lYJxwa8sGnMlQlAm_v-58" value="src" style="text;html=1;strokeColor=none;fillColor=none;align=center;verticalAlign=middle;whiteSpace=wrap;rounded=0;" parent="1" vertex="1">
          <mxGeometry x="70.00000000000001" y="307.505" width="60.20642201834863" height="25" as="geometry" />
        </mxCell>
        <mxCell id="w3lYJxwa8sGnMlQlAm_v-82" value="Outpack and Orderly" style="text;html=1;strokeColor=none;fillColor=none;align=center;verticalAlign=middle;whiteSpace=wrap;rounded=0;fontSize=22;fontStyle=4" parent="1" vertex="1">
          <mxGeometry x="2.09" y="10" width="227.91" height="30" as="geometry" />
        </mxCell>
        <mxCell id="w3lYJxwa8sGnMlQlAm_v-86" value="" style="endArrow=classic;html=1;rounded=0;entryX=0.98;entryY=0.97;entryDx=0;entryDy=0;exitX=0.25;exitY=0.25;exitDx=0;exitDy=0;exitPerimeter=0;entryPerimeter=0;" parent="1" source="w3lYJxwa8sGnMlQlAm_v-33" target="w3lYJxwa8sGnMlQlAm_v-57" edge="1">
          <mxGeometry width="50" height="50" relative="1" as="geometry">
            <mxPoint x="370" y="290" as="sourcePoint" />
            <mxPoint x="420" y="240" as="targetPoint" />
          </mxGeometry>
        </mxCell>
        <mxCell id="ie2OLaik_cQSUcNvViey-7" value="&lt;div&gt;orderly repository /&lt;br&gt;&lt;/div&gt;&lt;div&gt;packet file storage&lt;/div&gt;" style="sketch=0;aspect=fixed;pointerEvents=1;shadow=0;dashed=0;html=1;strokeColor=default;labelPosition=center;verticalLabelPosition=bottom;verticalAlign=top;align=center;fillColor=none;shape=mxgraph.mscae.enterprise.folder" vertex="1" parent="1">
          <mxGeometry x="661" y="361" width="244.17" height="210" as="geometry" />
        </mxCell>
        <mxCell id="ie2OLaik_cQSUcNvViey-8" value="orderly_config.yml" style="whiteSpace=wrap;html=1;shape=mxgraph.basic.document" vertex="1" parent="1">
          <mxGeometry x="695.88" y="396" width="110" height="45" as="geometry" />
        </mxCell>
        <mxCell id="ie2OLaik_cQSUcNvViey-9" value="" style="group" connectable="0" vertex="1" parent="1">
          <mxGeometry x="789.37" y="456" width="70" height="110" as="geometry" />
        </mxCell>
        <mxCell id="ie2OLaik_cQSUcNvViey-10" value="" style="sketch=0;aspect=fixed;pointerEvents=1;shadow=0;dashed=0;html=1;strokeColor=default;labelPosition=center;verticalLabelPosition=bottom;verticalAlign=middle;align=center;fillColor=none;shape=mxgraph.mscae.enterprise.folder" vertex="1" parent="ie2OLaik_cQSUcNvViey-9">
          <mxGeometry y="-10" width="70" height="60.21" as="geometry" />
        </mxCell>
        <mxCell id="ie2OLaik_cQSUcNvViey-11" value="&lt;div&gt;.outpack&lt;/div&gt;&lt;div&gt;(metadata only)&lt;br&gt;&lt;/div&gt;" style="text;html=1;strokeColor=none;fillColor=none;align=center;verticalAlign=middle;whiteSpace=wrap;rounded=0;" vertex="1" parent="ie2OLaik_cQSUcNvViey-9">
          <mxGeometry x="-10" y="15.81" width="80" height="20.85" as="geometry" />
        </mxCell>
        <mxCell id="ie2OLaik_cQSUcNvViey-12" value="" style="group" connectable="0" vertex="1" parent="ie2OLaik_cQSUcNvViey-9">
          <mxGeometry y="55" width="65.12" height="55" as="geometry" />
        </mxCell>
        <mxCell id="ie2OLaik_cQSUcNvViey-13" value="" style="sketch=0;aspect=fixed;pointerEvents=1;shadow=0;dashed=0;html=1;strokeColor=default;labelPosition=center;verticalLabelPosition=bottom;verticalAlign=middle;align=center;fillColor=none;shape=mxgraph.mscae.enterprise.folder" vertex="1" parent="ie2OLaik_cQSUcNvViey-12">
          <mxGeometry width="58.13" height="50" as="geometry" />
        </mxCell>
        <mxCell id="ie2OLaik_cQSUcNvViey-14" value="draft" style="text;html=1;strokeColor=none;fillColor=none;align=center;verticalAlign=middle;whiteSpace=wrap;rounded=0;" vertex="1" parent="ie2OLaik_cQSUcNvViey-12">
          <mxGeometry y="15.8125" width="56.00917431192662" height="27.5" as="geometry" />
        </mxCell>
        <mxCell id="ie2OLaik_cQSUcNvViey-15" value="src" style="sketch=0;aspect=fixed;pointerEvents=1;shadow=0;dashed=0;html=1;strokeColor=default;labelPosition=center;verticalLabelPosition=middle;verticalAlign=middle;align=center;fillColor=none;shape=mxgraph.mscae.enterprise.folder" vertex="1" parent="1">
          <mxGeometry x="695.88" y="450" width="58.13333333333334" height="50" as="geometry" />
        </mxCell>
        <mxCell id="ie2OLaik_cQSUcNvViey-16" value="" style="group" connectable="0" vertex="1" parent="1">
          <mxGeometry x="715.88" y="501" width="69.75999999999999" height="60" as="geometry" />
        </mxCell>
        <mxCell id="ie2OLaik_cQSUcNvViey-17" value="" style="group" connectable="0" vertex="1" parent="ie2OLaik_cQSUcNvViey-16">
          <mxGeometry x="-20" y="7.5" width="58.13" height="50" as="geometry" />
        </mxCell>
        <mxCell id="ie2OLaik_cQSUcNvViey-18" value="" style="sketch=0;aspect=fixed;pointerEvents=1;shadow=0;dashed=0;html=1;strokeColor=default;labelPosition=center;verticalLabelPosition=bottom;verticalAlign=middle;align=center;fillColor=none;shape=mxgraph.mscae.enterprise.folder" vertex="1" parent="ie2OLaik_cQSUcNvViey-17">
          <mxGeometry width="58.13" height="50" as="geometry" />
        </mxCell>
        <mxCell id="ie2OLaik_cQSUcNvViey-19" value="archive" style="text;html=1;strokeColor=none;fillColor=none;align=center;verticalAlign=middle;whiteSpace=wrap;rounded=0;" vertex="1" parent="ie2OLaik_cQSUcNvViey-17">
          <mxGeometry x="4.07" y="20" width="50" height="17.25" as="geometry" />
        </mxCell>
        <mxCell id="w3lYJxwa8sGnMlQlAm_v-52" value="" style="sketch=0;aspect=fixed;pointerEvents=1;shadow=0;dashed=0;html=1;strokeColor=default;labelPosition=center;verticalLabelPosition=bottom;verticalAlign=middle;align=center;fillColor=none;shape=mxgraph.mscae.enterprise.folder" parent="1" vertex="1">
          <mxGeometry x="170.93" y="295" width="58.13" height="50" as="geometry" />
        </mxCell>
        <mxCell id="w3lYJxwa8sGnMlQlAm_v-54" value="&lt;div&gt;.outpack&lt;/div&gt;" style="text;html=1;strokeColor=none;fillColor=none;align=center;verticalAlign=middle;whiteSpace=wrap;rounded=0;" parent="1" vertex="1">
          <mxGeometry x="160" y="316" width="80" height="20.85" as="geometry" />
        </mxCell>
        <mxCell id="ie2OLaik_cQSUcNvViey-26" value="Writes output" style="endArrow=classic;html=1;rounded=0;exitX=0.965;exitY=0.99;exitDx=0;exitDy=0;exitPerimeter=0;entryX=0.06;entryY=0.07;entryDx=0;entryDy=0;entryPerimeter=0;" edge="1" parent="1" source="w3lYJxwa8sGnMlQlAm_v-26" target="ie2OLaik_cQSUcNvViey-7">
          <mxGeometry x="-0.3709" y="-5" width="50" height="50" relative="1" as="geometry">
            <mxPoint x="400" y="310" as="sourcePoint" />
            <mxPoint x="450" y="260" as="targetPoint" />
            <mxPoint as="offset" />
          </mxGeometry>
        </mxCell>
        <mxCell id="ie2OLaik_cQSUcNvViey-27" value="" style="endArrow=classic;html=1;rounded=0;entryX=0;entryY=0.5;entryDx=0;entryDy=0;entryPerimeter=0;exitX=0.8;exitY=0.8;exitDx=0;exitDy=0;exitPerimeter=0;" edge="1" parent="1" source="w3lYJxwa8sGnMlQlAm_v-33" target="ie2OLaik_cQSUcNvViey-15">
          <mxGeometry width="50" height="50" relative="1" as="geometry">
            <mxPoint x="620" y="431" as="sourcePoint" />
            <mxPoint x="440" y="440" as="targetPoint" />
          </mxGeometry>
        </mxCell>
        <mxCell id="ie2OLaik_cQSUcNvViey-28" value="&lt;div&gt;fetch report&lt;/div&gt;&lt;div&gt;&amp;nbsp;source&lt;/div&gt;&lt;div&gt;&lt;br&gt;&lt;/div&gt;" style="edgeLabel;html=1;align=center;verticalAlign=middle;resizable=0;points=[];" connectable="0" vertex="1" parent="ie2OLaik_cQSUcNvViey-27">
          <mxGeometry x="-0.12" relative="1" as="geometry">
            <mxPoint y="24" as="offset" />
          </mxGeometry>
        </mxCell>
        <mxCell id="ie2OLaik_cQSUcNvViey-29" value="" style="endArrow=classic;html=1;rounded=0;exitX=0.25;exitY=1;exitDx=0;exitDy=0;entryX=0.4;entryY=0;entryDx=0;entryDy=0;entryPerimeter=0;" edge="1" parent="1" source="w3lYJxwa8sGnMlQlAm_v-3" target="w3lYJxwa8sGnMlQlAm_v-52">
          <mxGeometry width="50" height="50" relative="1" as="geometry">
            <mxPoint x="281" y="188" as="sourcePoint" />
            <mxPoint x="269" y="250" as="targetPoint" />
          </mxGeometry>
        </mxCell>
        <mxCell id="ie2OLaik_cQSUcNvViey-30" value="read/write packets" style="edgeLabel;html=1;align=center;verticalAlign=middle;resizable=0;points=[];" connectable="0" vertex="1" parent="ie2OLaik_cQSUcNvViey-29">
          <mxGeometry x="0.1148" y="-1" relative="1" as="geometry">
            <mxPoint x="-25" y="-10" as="offset" />
          </mxGeometry>
        </mxCell>
        <mxCell id="ie2OLaik_cQSUcNvViey-38" value="User&#39;s machine" style="text;html=1;strokeColor=none;fillColor=none;align=center;verticalAlign=middle;whiteSpace=wrap;rounded=0;" vertex="1" parent="1">
          <mxGeometry x="789.37" y="265" width="110.63" height="30" as="geometry" />
        </mxCell>
        <mxCell id="ie2OLaik_cQSUcNvViey-42" style="edgeStyle=orthogonalEdgeStyle;rounded=0;orthogonalLoop=1;jettySize=auto;html=1;entryX=1;entryY=0.5;entryDx=0;entryDy=0;entryPerimeter=0;endArrow=none;endFill=0;" edge="1" parent="1" source="ie2OLaik_cQSUcNvViey-41" target="Nc5Ob6U3UA9-lTMzCozv-2">
          <mxGeometry relative="1" as="geometry" />
        </mxCell>
        <mxCell id="ie2OLaik_cQSUcNvViey-41" value="Caches outpack metadata and contains app user data" style="text;html=1;strokeColor=none;fillColor=none;align=center;verticalAlign=middle;whiteSpace=wrap;rounded=0;" vertex="1" parent="1">
          <mxGeometry x="880" y="152.5" width="134.83" height="65" as="geometry" />
        </mxCell>
        <mxCell id="ie2OLaik_cQSUcNvViey-44" style="edgeStyle=orthogonalEdgeStyle;rounded=0;orthogonalLoop=1;jettySize=auto;html=1;entryX=0.998;entryY=0.608;entryDx=0;entryDy=0;entryPerimeter=0;endArrow=none;endFill=0;" edge="1" parent="1" source="ie2OLaik_cQSUcNvViey-43" target="ie2OLaik_cQSUcNvViey-7">
          <mxGeometry relative="1" as="geometry" />
        </mxCell>
        <mxCell id="ie2OLaik_cQSUcNvViey-43" value="User could also have file store like on the server as well or instead of the archive" style="text;html=1;strokeColor=none;fillColor=none;align=center;verticalAlign=middle;whiteSpace=wrap;rounded=0;" vertex="1" parent="1">
          <mxGeometry x="940" y="456" width="134.83" height="65" as="geometry" />
        </mxCell>
        <mxCell id="ie2OLaik_cQSUcNvViey-46" style="edgeStyle=orthogonalEdgeStyle;rounded=0;orthogonalLoop=1;jettySize=auto;html=1;endArrow=none;endFill=0;" edge="1" parent="1" source="ie2OLaik_cQSUcNvViey-45">
          <mxGeometry relative="1" as="geometry">
            <mxPoint x="500" y="90" as="targetPoint" />
          </mxGeometry>
        </mxCell>
        <mxCell id="ie2OLaik_cQSUcNvViey-45" value="Runs on a schedule to update packit-db" style="text;html=1;strokeColor=none;fillColor=none;align=center;verticalAlign=middle;whiteSpace=wrap;rounded=0;" vertex="1" parent="1">
          <mxGeometry x="450" y="10" width="100" height="50" as="geometry" />
        </mxCell>
      </root>
    </mxGraphModel>
  </diagram>
</mxfile>
